<?xml version="1.0" encoding="UTF-8"?>
<svg id="TEXTS" xmlns="http://www.w3.org/2000/svg" xmlns:xlink="http://www.w3.org/1999/xlink" viewBox="0 0 542.49 275.55">
  <defs>
    <style>
      .cls-1 {
        clip-path: url(#clippath);
      }

      .cls-2 {
        clip-path: url(#clippath-1);
      }

      .cls-3 {
        clip-path: url(#clippath-4);
      }

      .cls-4 {
        clip-path: url(#clippath-3);
      }

      .cls-5 {
        clip-path: url(#clippath-2);
      }

      .cls-6 {
        clip-path: url(#clippath-6);
      }

      .cls-7 {
        clip-path: url(#clippath-5);
      }

      .cls-8 {
        clip-rule: evenodd;
      }

      .cls-8, .cls-9 {
        stroke-width: 0px;
      }

      .cls-10 {
        fill-rule: evenodd;
      }
    </style>
    <clipPath id="clippath">
      <path class="cls-8" d="M361.82,127.24c.48-1.2,1.06-2.37,1.72-3.52,5.89-10.2,17.25-15.32,28.26-13.79l-2.93,3.96c-8.6-.35-17.09,3.97-21.69,11.94-.16.28-.32.57-.47.86l-4.9.56ZM391.8,165.61c-6,.85-12.32-.22-17.97-3.48-5.65-3.26-9.73-8.19-12-13.82l4.88.56c2.03,3.88,5.15,7.26,9.23,9.61,4.08,2.35,8.56,3.37,12.94,3.18l2.92,3.95ZM410.06,120.47c6.83,8.77,8.08,21.17,2.19,31.37-.66,1.15-1.4,2.23-2.19,3.25l-1.97-4.52c.17-.27.34-.55.51-.84,4.6-7.97,4.09-17.48-.51-24.75l1.96-4.51ZM347.5,128.87c.89-4.04,2.4-8,4.58-11.77,9.89-17.13,30.19-24.51,48.3-18.75l-2.67,3.61c-15.89-4.35-33.37,2.33-41.98,17.25-1.7,2.94-2.95,6.02-3.77,9.16l-4.46.51ZM400.38,177.2c-10.68,3.38-22.69,2.43-33.16-3.61-10.47-6.04-17.29-15.97-19.71-26.91l4.47.51c2.43,9.26,8.41,17.6,17.34,22.75,8.93,5.16,19.14,6.17,28.38,3.64l2.68,3.62ZM415.8,107.25c14.04,12.81,17.8,34.07,7.91,51.21-2.18,3.77-4.86,7.06-7.91,9.85l-1.79-4.12c2.31-2.28,4.35-4.9,6.05-7.84,8.62-14.92,5.67-33.4-6.05-44.98l1.79-4.12Z"/>
    </clipPath>
    <clipPath id="clippath-1">
      <path class="cls-8" d="M383.2,129.64l-.32-.56,22.83-30.84h5.02l2.51,4.35-13.92,32.02c-.2-.73-.47-1.44-.81-2.11l12.95-29.8-1.65-2.86-17.21,29.82c-3.01-1.74-6.58-1.62-9.39,0"/>
    </clipPath>
    <clipPath id="clippath-2">
      <path class="cls-8" d="M397.29,137.78h.65l15.29,35.19-2.51,4.35h-5.02l-20.77-28.06c.74.19,1.49.31,2.24.35l19.33,26.12h3.31l-17.21-29.81c1.38-.8,2.58-1.96,3.44-3.44s1.26-3.1,1.26-4.7"/>
    </clipPath>
    <clipPath id="clippath-3">
      <path class="cls-8" d="M383.2,145.91l-.32.56-38.12-4.35-2.51-4.35,2.51-4.35,34.68-3.96c-.52.53-1,1.12-1.42,1.76l-32.29,3.68-1.65,2.86h34.43c0,3.24,1.69,6.4,4.7,8.13"/>
    </clipPath>
    <clipPath id="clippath-4">
      <path class="cls-8" d="M391.59,147.35c-2.8,1.08-6.03.93-8.83-.69-3.29-1.9-5.13-5.35-5.13-8.89h1.59c0,3,1.56,5.91,4.34,7.52,2.29,1.32,4.92,1.48,7.23.67l.8,1.39ZM392.24,130.26c-4.15-2.4-9.46-.97-11.86,3.18-.51.88-.84,1.81-1.02,2.75h-1.61c.19-1.22.6-2.42,1.25-3.55,2.83-4.91,9.11-6.59,14.02-3.76l-.79,1.37ZM394.34,129.79c3.88,3.12,5.01,8.68,2.44,13.12-.93,1.62-2.24,2.89-3.76,3.76l-.79-1.37c1.28-.74,2.39-1.81,3.18-3.18,2.13-3.68,1.25-8.27-1.88-10.94l.8-1.39Z"/>
    </clipPath>
    <clipPath id="clippath-5">
      <path class="cls-8" d="M389.06,135.75c1.12.64,1.5,2.07.85,3.19-.64,1.12-2.07,1.5-3.19.86-1.12-.65-1.5-2.07-.86-3.19.64-1.12,2.07-1.5,3.19-.85M390.65,133.01c2.63,1.52,3.54,4.89,2.02,7.52-1.52,2.63-4.89,3.54-7.52,2.02-2.63-1.52-3.54-4.89-2.02-7.52,1.52-2.63,4.89-3.54,7.52-2.02Z"/>
    </clipPath>
    <clipPath id="clippath-6">
      <path class="cls-8" d="M378.35,136.19v-1.59h5.63c-.16.2-.31.42-.45.65-.17.3-.31.61-.42.93h-4.76ZM394.04,130.31l1.37.79-2.82,4.88c-.22-.56-.53-1.09-.94-1.55l2.38-4.12ZM391.29,146.83l-1.37.79-2.82-4.88c.61.1,1.22.08,1.81-.04l2.38,4.12Z"/>
    </clipPath>
  </defs>
  <path class="cls-9" d="M122.95,145.48c0,1.5,0,2.65,0,3.79,0,8.04.04,16.08-.03,24.11-.03,3.14-2.12,5.34-4.82,5.4-2.54.05-4.79-2.11-4.81-5.01-.07-11.04-.08-22.08,0-33.12.03-3.18,1.99-4.69,5.99-4.73,8.25-.07,16.51,0,24.76-.03,1.5,0,3.01-.03,4.49-.23,7.58-1.03,13.21-7.49,12.71-14.53-.57-8.02-6.55-13.7-14.57-13.74-9.22-.04-18.43,0-27.65-.02-3.62,0-5.79-1.91-5.76-4.97.03-2.9,2.12-4.72,5.67-4.73,9.54-.04,19.08-.16,28.62.03,13.03.25,23.47,11.14,23.46,24.16-.01,12.4-10.37,23.08-23.05,23.5-7.07.24-14.15.08-21.22.09-1.15,0-2.3,0-3.79,0Z"/>
  <path class="cls-9" d="M314.43,161.95c0-1.14,0-2.28,0-3.41,0-17.78,0-35.57,0-53.35,0-1.18-.07-2.38.16-3.52.48-2.33,1.89-3.88,4.38-3.94,2.4-.06,4.13,1.11,4.78,3.48.3,1.12.38,2.32.38,3.49.02,21.85.02,43.71.02,65.56,0,.64,0,1.29-.03,1.93-.18,3.24-1.7,5.56-4.9,6.37-2.92.74-5.26-.5-6.94-2.89-5.12-7.26-10.18-14.56-15.27-21.85-6.26-8.95-12.59-17.85-18.71-26.89-.91-1.34-1.47-3.44-1.13-4.95.27-1.2,2.22-2.88,3.33-2.82,1.65.09,3.74,1.15,4.75,2.48,4.02,5.28,7.69,10.82,11.49,16.26,5.63,8.06,11.26,16.12,16.89,24.18.27-.04.54-.09.81-.13Z"/>
  <path class="cls-9" d="M198.98,141.5v27.59h3.57c10.5,0,20.99-.02,31.49.01,3.67.01,5.94,1.91,5.97,4.85.02,2.85-2.36,4.84-6.03,4.85-12.96.03-25.92.03-38.88,0-4.11,0-5.95-1.79-5.96-5.81-.04-11.89-.04-23.78,0-35.66.01-3.76,1.75-5.51,5.51-5.53,11.14-.05,22.28-.04,33.42,0,3.6.01,5.67,2.01,5.6,5.14-.06,2.93-2.07,4.54-5.76,4.55-9.52.02-19.04,0-28.93,0Z"/>
  <path class="cls-9" d="M259.06,138.17c0-11.57-.02-23.14.02-34.72.01-3.57,1.8-5.73,4.65-5.73,2.42,0,4.11,1.21,4.7,3.58.31,1.23.34,2.54.34,3.82.02,21.86.02,43.72,0,65.57,0,1.49.33,3.36-.42,4.39-1.13,1.54-2.95,3.22-4.7,3.51-2.19.37-3.97-1.37-4.42-3.79-.2-1.04-.17-2.13-.17-3.2-.01-11.14,0-22.29,0-33.43Z"/>
  <path class="cls-9" d="M214.41,107.4c-6.54,0-13.07.02-19.61,0-3.51-.01-5.54-1.75-5.64-4.73-.1-3,1.9-4.95,5.4-4.96,13.29-.05,26.58-.04,39.87,0,3.39.01,5.57,2.03,5.58,4.91,0,2.78-2.3,4.77-5.66,4.79-6.64.03-13.29,0-19.93,0Z"/>
  <path class="cls-9" d="M163.15,178.78c-.65-.52-2.29-1.3-3.1-2.59-3.45-5.52-6.71-11.16-9.92-16.82-1.4-2.48-.65-5.07,1.69-6.34,2.45-1.32,4.74-.77,6.16,1.51,3.56,5.71,7.03,11.47,10.26,17.37,1.75,3.18-.64,6.89-5.08,6.88Z"/>
  <g>
    <path class="cls-10" d="M361.82,127.24c.48-1.2,1.06-2.37,1.72-3.52,5.89-10.2,17.25-15.32,28.26-13.79l-2.93,3.96c-8.6-.35-17.09,3.97-21.69,11.94-.16.28-.32.57-.47.86l-4.9.56ZM391.8,165.61c-6,.85-12.32-.22-17.97-3.48-5.65-3.26-9.73-8.19-12-13.82l4.88.56c2.03,3.88,5.15,7.26,9.23,9.61,4.08,2.35,8.56,3.37,12.94,3.18l2.92,3.95ZM410.06,120.47c6.83,8.77,8.08,21.17,2.19,31.37-.66,1.15-1.4,2.23-2.19,3.25l-1.97-4.52c.17-.27.34-.55.51-.84,4.6-7.97,4.09-17.48-.51-24.75l1.96-4.51ZM347.5,128.87c.89-4.04,2.4-8,4.58-11.77,9.89-17.13,30.19-24.51,48.3-18.75l-2.67,3.61c-15.89-4.35-33.37,2.33-41.98,17.25-1.7,2.94-2.95,6.02-3.77,9.16l-4.46.51ZM400.38,177.2c-10.68,3.38-22.69,2.43-33.16-3.61-10.47-6.04-17.29-15.97-19.71-26.91l4.47.51c2.43,9.26,8.41,17.6,17.34,22.75,8.93,5.16,19.14,6.17,28.38,3.64l2.68,3.62ZM415.8,107.25c14.04,12.81,17.8,34.07,7.91,51.21-2.18,3.77-4.86,7.06-7.91,9.85l-1.79-4.12c2.31-2.28,4.35-4.9,6.05-7.84,8.62-14.92,5.67-33.4-6.05-44.98l1.79-4.12Z"/>
    <g class="cls-1">
      <rect class="cls-9" x="347.5" y="92.59" width="86.1" height="87.99"/>
    </g>
  </g>
  <g>
    <path class="cls-10" d="M383.2,129.64l-.32-.56,22.83-30.84h5.02l2.51,4.35-13.92,32.02c-.2-.73-.47-1.44-.81-2.11l12.95-29.8-1.65-2.86-17.21,29.82c-3.01-1.74-6.58-1.62-9.39,0"/>
    <g class="cls-2">
      <rect class="cls-9" x="382.87" y="98.24" width="30.36" height="36.37"/>
    </g>
  </g>
  <g>
    <path class="cls-10" d="M397.29,137.78h.65l15.29,35.19-2.51,4.35h-5.02l-20.77-28.06c.74.19,1.49.31,2.24.35l19.33,26.12h3.31l-17.21-29.81c1.38-.8,2.58-1.96,3.44-3.44s1.26-3.1,1.26-4.7"/>
    <g class="cls-5">
      <rect class="cls-9" x="384.93" y="137.78" width="28.3" height="39.54"/>
    </g>
  </g>
  <g>
    <path class="cls-10" d="M383.2,145.91l-.32.56-38.12-4.35-2.51-4.35,2.51-4.35,34.68-3.96c-.52.53-1,1.12-1.42,1.76l-32.29,3.68-1.65,2.86h34.43c0,3.24,1.69,6.4,4.7,8.13"/>
    <g class="cls-4">
      <rect class="cls-9" x="342.24" y="129.47" width="40.96" height="17"/>
    </g>
  </g>
  <g>
    <path class="cls-10" d="M391.59,147.35c-2.8,1.08-6.03.93-8.83-.69-3.29-1.9-5.13-5.35-5.13-8.89h1.59c0,3,1.56,5.91,4.34,7.52,2.29,1.32,4.92,1.48,7.23.67l.8,1.39ZM392.24,130.26c-4.15-2.4-9.46-.97-11.86,3.18-.51.88-.84,1.81-1.02,2.75h-1.61c.19-1.22.6-2.42,1.25-3.55,2.83-4.91,9.11-6.59,14.02-3.76l-.79,1.37ZM394.34,129.79c3.88,3.12,5.01,8.68,2.44,13.12-.93,1.62-2.24,2.89-3.76,3.76l-.79-1.37c1.28-.74,2.39-1.81,3.18-3.18,2.13-3.68,1.25-8.27-1.88-10.94l.8-1.39Z"/>
    <g class="cls-3">
      <rect class="cls-9" x="377.63" y="126.05" width="21.72" height="22.38"/>
    </g>
  </g>
  <g>
    <path class="cls-10" d="M389.06,135.75c1.12.64,1.5,2.07.85,3.19-.64,1.12-2.07,1.5-3.19.86-1.12-.65-1.5-2.07-.86-3.19.64-1.12,2.07-1.5,3.19-.85M390.65,133.01c2.63,1.52,3.54,4.89,2.02,7.52-1.52,2.63-4.89,3.54-7.52,2.02-2.63-1.52-3.54-4.89-2.02-7.52,1.52-2.63,4.89-3.54,7.52-2.02Z"/>
    <g class="cls-7">
      <rect class="cls-9" x="381.6" y="131.49" width="12.58" height="12.58"/>
    </g>
  </g>
  <g>
    <path class="cls-10" d="M378.35,136.19v-1.59h5.63c-.16.2-.31.42-.45.65-.17.3-.31.61-.42.93h-4.76ZM394.04,130.31l1.37.79-2.82,4.88c-.22-.56-.53-1.09-.94-1.55l2.38-4.12ZM391.29,146.83l-1.37.79-2.82-4.88c.61.1,1.22.08,1.81-.04l2.38,4.12Z"/>
    <g class="cls-6">
      <rect class="cls-9" x="378.35" y="130.31" width="17.06" height="17.32"/>
    </g>
  </g>
</svg>