<?xml version="1.0" encoding="UTF-8"?>
<svg id="TEXTS" xmlns="http://www.w3.org/2000/svg" xmlns:xlink="http://www.w3.org/1999/xlink" viewBox="0 0 542.49 275.55">
  <defs>
    <style>
      .cls-1 {
        clip-rule: evenodd;
      }

      .cls-1, .cls-2, .cls-3 {
        fill: #fff;
      }

      .cls-1, .cls-4, .cls-3 {
        stroke-width: 0px;
      }

      .cls-5 {
        clip-path: url(#clippath);
      }

      .cls-6 {
        clip-path: url(#clippath-1);
      }

      .cls-7 {
        clip-path: url(#clippath-4);
      }

      .cls-8 {
        clip-path: url(#clippath-3);
      }

      .cls-9 {
        clip-path: url(#clippath-2);
      }

      .cls-10 {
        clip-path: url(#clippath-6);
      }

      .cls-11 {
        clip-path: url(#clippath-5);
      }

      .cls-2 {
        fill-rule: evenodd;
      }
    </style>
    <clipPath id="clippath">
      <path class="cls-1" d="M362.27,127.19c.49-1.2,1.06-2.39,1.73-3.54,5.92-10.25,17.34-15.4,28.41-13.86l-2.94,3.98c-8.64-.35-17.17,3.99-21.79,12-.16.28-.32.57-.47.86l-4.92.56ZM392.4,165.75c-6.03.85-12.38-.22-18.06-3.5-5.67-3.28-9.78-8.23-12.06-13.89l4.9.56c2.04,3.9,5.18,7.29,9.27,9.66,4.1,2.37,8.6,3.39,13,3.2l2.94,3.97ZM410.75,120.38c6.86,8.81,8.12,21.27,2.2,31.53-.67,1.15-1.4,2.24-2.2,3.27l-1.98-4.54c.17-.28.35-.55.51-.84,4.62-8,4.11-17.56-.51-24.87l1.97-4.54ZM347.88,128.83c.89-4.06,2.42-8.04,4.6-11.83,9.94-17.22,30.34-24.63,48.54-18.85l-2.68,3.63c-15.97-4.37-33.53,2.34-42.19,17.34-1.71,2.96-2.96,6.05-3.78,9.2l-4.49.51ZM401.02,177.4c-10.74,3.4-22.81,2.45-33.33-3.63-10.52-6.07-17.38-16.05-19.81-27.05l4.5.51c2.44,9.31,8.45,17.68,17.43,22.87,8.98,5.18,19.23,6.2,28.52,3.66l2.69,3.64ZM416.52,107.1c14.11,12.87,17.89,34.24,7.95,51.46-2.19,3.79-4.88,7.1-7.95,9.9l-1.8-4.14c2.32-2.29,4.37-4.92,6.08-7.88,8.66-15,5.7-33.56-6.08-45.21l1.8-4.14Z"/>
    </clipPath>
    <clipPath id="clippath-1">
      <path class="cls-1" d="M383.75,129.6l-.32-.56,22.94-30.99h5.05l2.52,4.37-13.99,32.18c-.2-.73-.48-1.44-.81-2.12l13.02-29.95-1.66-2.88-17.3,29.96c-3.03-1.75-6.62-1.63-9.44,0"/>
    </clipPath>
    <clipPath id="clippath-2">
      <path class="cls-1" d="M397.92,137.78h.65l15.37,35.36-2.52,4.37h-5.05l-20.87-28.2c.74.19,1.49.31,2.25.35l19.43,26.25h3.32l-17.3-29.96c1.39-.8,2.59-1.97,3.45-3.46s1.27-3.12,1.27-4.72"/>
    </clipPath>
    <clipPath id="clippath-3">
      <path class="cls-1" d="M383.76,145.95l-.33.56-38.31-4.37-2.52-4.37,2.52-4.37,34.86-3.98c-.52.53-1,1.12-1.43,1.77l-32.45,3.7-1.66,2.88h34.6c0,3.26,1.7,6.43,4.72,8.18"/>
    </clipPath>
    <clipPath id="clippath-4">
      <path class="cls-1" d="M392.19,147.4c-2.81,1.08-6.06.93-8.87-.69-3.31-1.91-5.16-5.37-5.16-8.93h1.59c0,3.01,1.57,5.94,4.36,7.55,2.3,1.33,4.95,1.49,7.27.67l.81,1.4ZM392.84,130.22c-4.17-2.41-9.51-.98-11.92,3.19-.51.88-.85,1.82-1.02,2.77h-1.62c.19-1.22.61-2.43,1.26-3.56,2.85-4.93,9.16-6.63,14.09-3.78l-.8,1.38ZM394.95,129.75c3.9,3.13,5.04,8.72,2.46,13.19-.94,1.63-2.26,2.9-3.77,3.78l-.8-1.38c1.28-.74,2.4-1.82,3.19-3.19,2.14-3.7,1.25-8.32-1.88-10.99l.81-1.4Z"/>
    </clipPath>
    <clipPath id="clippath-5">
      <path class="cls-1" d="M389.65,135.74c1.12.65,1.51,2.08.86,3.21-.65,1.12-2.08,1.51-3.21.86-1.12-.65-1.51-2.08-.86-3.21.65-1.12,2.08-1.51,3.21-.86M391.24,132.98c2.65,1.53,3.55,4.91,2.03,7.56-1.53,2.65-4.91,3.55-7.56,2.03-2.65-1.53-3.55-4.91-2.03-7.56,1.53-2.65,4.91-3.55,7.56-2.03Z"/>
    </clipPath>
    <clipPath id="clippath-6">
      <path class="cls-1" d="M378.88,136.18v-1.59h5.66c-.16.2-.32.42-.45.66-.18.3-.31.62-.42.94h-4.79ZM394.65,130.27l1.38.8-2.83,4.9c-.22-.56-.53-1.09-.94-1.55l2.39-4.14ZM391.89,146.88l-1.38.8-2.83-4.9c.61.1,1.22.08,1.82-.04l2.39,4.15Z"/>
    </clipPath>
  </defs>
  <rect class="cls-4" width="542.49" height="275.55"/>
  <g>
    <path class="cls-3" d="M122.21,145.51c0,1.51,0,2.66,0,3.81,0,8.08.04,16.16-.03,24.23-.03,3.16-2.13,5.37-4.85,5.43-2.55.06-4.82-2.12-4.83-5.03-.07-11.09-.08-22.19,0-33.28.03-3.2,2-4.71,6.02-4.75,8.29-.07,16.59-.01,24.88-.03,1.5,0,3.02-.03,4.51-.23,7.62-1.03,13.28-7.53,12.78-14.6-.57-8.06-6.58-13.77-14.64-13.81-9.26-.04-18.53,0-27.79-.02-3.64,0-5.82-1.92-5.78-4.99.03-2.91,2.13-4.74,5.7-4.76,9.59-.04,19.18-.16,28.76.03,13.09.26,23.59,11.19,23.57,24.28-.01,12.46-10.42,23.2-23.16,23.62-7.1.24-14.22.08-21.32.09-1.16,0-2.31,0-3.81,0Z"/>
    <path class="cls-3" d="M314.64,162.07c0-1.14,0-2.29,0-3.43,0-17.87,0-35.74,0-53.62,0-1.18-.07-2.4.16-3.54.48-2.34,1.9-3.9,4.4-3.96,2.41-.06,4.15,1.11,4.8,3.5.3,1.12.38,2.33.38,3.51.02,21.96.02,43.93.02,65.89,0,.65,0,1.29-.03,1.94-.18,3.26-1.71,5.59-4.92,6.4-2.93.74-5.28-.5-6.97-2.9-5.14-7.3-10.23-14.64-15.35-21.95-6.29-8.99-12.65-17.94-18.81-27.02-.92-1.35-1.48-3.46-1.13-4.98.27-1.2,2.23-2.89,3.35-2.83,1.66.09,3.76,1.16,4.77,2.49,4.04,5.3,7.73,10.87,11.55,16.34,5.66,8.1,11.32,16.2,16.98,24.3.27-.05.54-.09.81-.14Z"/>
    <path class="cls-3" d="M198.62,141.52v27.73h3.59c10.55,0,21.1-.02,31.64.01,3.69.01,5.97,1.92,6,4.87.02,2.87-2.37,4.86-6.06,4.87-13.02.03-26.05.03-39.07,0-4.13,0-5.98-1.8-5.99-5.84-.04-11.95-.04-23.89,0-35.84.01-3.78,1.76-5.54,5.54-5.56,11.19-.05,22.39-.04,33.58,0,3.62.01,5.7,2.02,5.63,5.17-.07,2.94-2.08,4.57-5.79,4.58-9.57.02-19.14,0-29.07,0Z"/>
    <path class="cls-3" d="M259,138.18c0-11.63-.02-23.26.02-34.89.01-3.59,1.8-5.76,4.67-5.76,2.44,0,4.13,1.21,4.72,3.59.31,1.23.34,2.56.34,3.84.02,21.97.02,43.93,0,65.9,0,1.5.33,3.38-.42,4.41-1.14,1.55-2.96,3.24-4.72,3.53-2.2.37-3.98-1.38-4.44-3.81-.2-1.05-.17-2.14-.17-3.22-.01-11.2,0-22.4,0-33.6Z"/>
    <path class="cls-3" d="M214.13,107.25c-6.57,0-13.14.02-19.71,0-3.53-.01-5.57-1.76-5.67-4.75-.1-3.02,1.91-4.97,5.43-4.99,13.35-.05,26.71-.04,40.06,0,3.41.01,5.6,2.04,5.61,4.93,0,2.8-2.31,4.8-5.69,4.81-6.68.03-13.35,0-20.03,0Z"/>
    <path class="cls-3" d="M162.61,178.98c-.65-.52-2.31-1.3-3.12-2.6-3.47-5.55-6.74-11.22-9.97-16.91-1.41-2.49-.65-5.1,1.7-6.37,2.46-1.33,4.76-.77,6.19,1.52,3.57,5.73,7.06,11.53,10.31,17.45,1.76,3.2-.64,6.93-5.11,6.91Z"/>
    <g>
      <path class="cls-2" d="M362.27,127.19c.49-1.2,1.06-2.39,1.73-3.54,5.92-10.25,17.34-15.4,28.41-13.86l-2.94,3.98c-8.64-.35-17.17,3.99-21.79,12-.16.28-.32.57-.47.86l-4.92.56ZM392.4,165.75c-6.03.85-12.38-.22-18.06-3.5-5.67-3.28-9.78-8.23-12.06-13.89l4.9.56c2.04,3.9,5.18,7.29,9.27,9.66,4.1,2.37,8.6,3.39,13,3.2l2.94,3.97ZM410.75,120.38c6.86,8.81,8.12,21.27,2.2,31.53-.67,1.15-1.4,2.24-2.2,3.27l-1.98-4.54c.17-.28.35-.55.51-.84,4.62-8,4.11-17.56-.51-24.87l1.97-4.54ZM347.88,128.83c.89-4.06,2.42-8.04,4.6-11.83,9.94-17.22,30.34-24.63,48.54-18.85l-2.68,3.63c-15.97-4.37-33.53,2.34-42.19,17.34-1.71,2.96-2.96,6.05-3.78,9.2l-4.49.51ZM401.02,177.4c-10.74,3.4-22.81,2.45-33.33-3.63-10.52-6.07-17.38-16.05-19.81-27.05l4.5.51c2.44,9.31,8.45,17.68,17.43,22.87,8.98,5.18,19.23,6.2,28.52,3.66l2.69,3.64ZM416.52,107.1c14.11,12.87,17.89,34.24,7.95,51.46-2.19,3.79-4.88,7.1-7.95,9.9l-1.8-4.14c2.32-2.29,4.37-4.92,6.08-7.88,8.66-15,5.7-33.56-6.08-45.21l1.8-4.14Z"/>
      <g class="cls-5">
        <rect class="cls-3" x="347.88" y="92.37" width="86.53" height="88.43"/>
      </g>
    </g>
    <g>
      <path class="cls-2" d="M383.75,129.6l-.32-.56,22.94-30.99h5.05l2.52,4.37-13.99,32.18c-.2-.73-.48-1.44-.81-2.12l13.02-29.95-1.66-2.88-17.3,29.96c-3.03-1.75-6.62-1.63-9.44,0"/>
      <g class="cls-6">
        <rect class="cls-3" x="383.43" y="98.05" width="30.51" height="36.55"/>
      </g>
    </g>
    <g>
      <path class="cls-2" d="M397.92,137.78h.65l15.37,35.36-2.52,4.37h-5.05l-20.87-28.2c.74.19,1.49.31,2.25.35l19.43,26.25h3.32l-17.3-29.96c1.39-.8,2.59-1.97,3.45-3.46s1.27-3.12,1.27-4.72"/>
      <g class="cls-9">
        <rect class="cls-3" x="385.5" y="137.78" width="28.44" height="39.73"/>
      </g>
    </g>
    <g>
      <path class="cls-2" d="M383.76,145.95l-.33.56-38.31-4.37-2.52-4.37,2.52-4.37,34.86-3.98c-.52.53-1,1.12-1.43,1.77l-32.45,3.7-1.66,2.88h34.6c0,3.26,1.7,6.43,4.72,8.18"/>
      <g class="cls-8">
        <rect class="cls-3" x="342.6" y="129.43" width="41.16" height="17.08"/>
      </g>
    </g>
    <g>
      <path class="cls-2" d="M392.19,147.4c-2.81,1.08-6.06.93-8.87-.69-3.31-1.91-5.16-5.37-5.16-8.93h1.59c0,3.01,1.57,5.94,4.36,7.55,2.3,1.33,4.95,1.49,7.27.67l.81,1.4ZM392.84,130.22c-4.17-2.41-9.51-.98-11.92,3.19-.51.88-.85,1.82-1.02,2.77h-1.62c.19-1.22.61-2.43,1.26-3.56,2.85-4.93,9.16-6.63,14.09-3.78l-.8,1.38ZM394.95,129.75c3.9,3.13,5.04,8.72,2.46,13.19-.94,1.63-2.26,2.9-3.77,3.78l-.8-1.38c1.28-.74,2.4-1.82,3.19-3.19,2.14-3.7,1.25-8.32-1.88-10.99l.81-1.4Z"/>
      <g class="cls-7">
        <rect class="cls-3" x="378.16" y="125.99" width="21.83" height="22.49"/>
      </g>
    </g>
    <g>
      <path class="cls-2" d="M389.65,135.74c1.12.65,1.51,2.08.86,3.21-.65,1.12-2.08,1.51-3.21.86-1.12-.65-1.51-2.08-.86-3.21.65-1.12,2.08-1.51,3.21-.86M391.24,132.98c2.65,1.53,3.55,4.91,2.03,7.56-1.53,2.65-4.91,3.55-7.56,2.03-2.65-1.53-3.55-4.91-2.03-7.56,1.53-2.65,4.91-3.55,7.56-2.03Z"/>
      <g class="cls-11">
        <rect class="cls-3" x="382.15" y="131.46" width="12.64" height="12.64"/>
      </g>
    </g>
    <g>
      <path class="cls-2" d="M378.88,136.18v-1.59h5.66c-.16.2-.32.42-.45.66-.18.3-.31.62-.42.94h-4.79ZM394.65,130.27l1.38.8-2.83,4.9c-.22-.56-.53-1.09-.94-1.55l2.39-4.14ZM391.89,146.88l-1.38.8-2.83-4.9c.61.1,1.22.08,1.82-.04l2.39,4.15Z"/>
      <g class="cls-10">
        <rect class="cls-3" x="378.88" y="130.27" width="17.15" height="17.41"/>
      </g>
    </g>
  </g>
</svg>